<svg width="128" height="128" viewBox="0 0 128 128" xmlns="http://www.w3.org/2000/svg">
  <!-- Clean background -->
  <rect width="128" height="128" fill="white"/>

  <!-- Extract and scale the geometric symbol from the original logo -->
  <g transform="translate(64, 64) scale(1.4)" fill="#d94343">
    <!-- Original geometric symbol scaled and centered -->
    <g transform="translate(-25, -25) scale(1.0)">
      <!-- Top rectangle/face -->
      <path d="M45.6,14.7v20.9l-7.7,0.02l-11.4-0.007V14.8l19.1-0.02 M25.9,13.9c-0.26,0.036-0.39,0.17-0.4,0.41v21.8    c0.021,0.28,0.16,0.42,0.42,0.43l19.9,0c0.11-0.007,0.21-0.05,0.29-0.14c0.078-0.11,0.11-0.2,0.1-0.29V14.4c-0.007-0.24-0.14-0.38-0.4-0.41l-19.9,0"/>

      <!-- Bottom right face -->
      <path d="M44.2,37.8L26.1,48.3l-3.9-6.7l-5.7-9.9l18.1-10.5L44.2,37.8 M35.1,20.4c-0.16-0.21-0.35-0.26-0.56-0.14    L15.8,31.2c-0.23,0.16-0.29,0.35-0.16,0.58l10,17.3c0.064,0.093,0.15,0.16,0.26,0.18c0.13,0.014,0.23-0.007,0.29-0.057l18.8-10.9    c0.2-0.12,0.26-0.31,0.16-0.55L35.1,20.4"/>

      <!-- Bottom left face -->
      <path d="M23.7,48.2L5.5,37.7l3.8-6.7l5.7-9.9l18.1,10.5L23.7,48.2 M34.1,31.6c0.1-0.24,0.05-0.43-0.15-0.55    L15.1,20.2c-0.25-0.12-0.45-0.07-0.58,0.15L4.6,37.6c-0.05,0.1-0.064,0.21-0.021,0.32c0.057,0.12,0.12,0.19,0.2,0.23l18.8,10.9    c0.21,0.11,0.39,0.07,0.56-0.14l10-17.3"/>

      <!-- Left face -->
      <path d="M4.4,35.5V14.5l7.7-0.021l11.4,0.007v21l-19.1,0.021 M23.9,36.3c0.26-0.036,0.39-0.17,0.4-0.41V14.1    c-0.021-0.28-0.16-0.42-0.42-0.43l-19.9,0c-0.11,0.007-0.21,0.05-0.29,0.14c-0.078,0.11-0.11,0.2-0.1,0.29v21.8c0.007,0.24,0.14,0.38,0.4,0.41l19.9,0"/>

      <!-- Top right face -->
      <path d="M26.3,2.1l18.1,10.5L40.6,19.3l-5.7,9.9L16.7,18.7L26.3,2.1 M15.8,18.6c-0.1,0.24-0.05,0.43,0.15,0.55    l18.8,10.9c0.25,0.12,0.45,0.07,0.58-0.15l10-17.3c0.05-0.1,0.064-0.21,0.021-0.32c-0.057-0.12-0.12-0.19-0.2-0.23L26.4,1.2    c-0.21-0.11-0.39-0.07-0.56,0.14L15.8,18.6"/>

      <!-- Top left face -->
      <path d="M5.7,12.5L23.8,2l3.9,6.7l5.7,9.9L15.3,29.1L5.7,12.5 M14.8,29.8c0.16,0.21,0.35,0.26,0.56,0.14    l18.8-10.9c0.23-0.16,0.29-0.35,0.16-0.58L24.3,1.2c-0.064-0.093-0.15-0.16-0.26-0.18c-0.13-0.014-0.23,0.007-0.29,0.057L5,11.9    c-0.2,0.12-0.26,0.31-0.16,0.55l9.9,17.3"/>
    </g>
  </g>
</svg>
